<svg xmlns="http://www.w3.org/2000/svg" width="24.25" height="20.983" viewBox="0 0 24.25 20.983">
  <g id="Group_78834" data-name="Group 78834" transform="translate(-49.875 -831.985)">
    <g id="amenities" transform="translate(50 832.11)">
      <path id="Path_62835" data-name="Path 62835" d="M81.289,382.153h9.918a.352.352,0,1,1,0,.7H81.289a.677.677,0,0,0-.586.727c0,.207.055.445.485.445h2.639a.352.352,0,0,1,0,.7H81.188A1.1,1.1,0,0,1,80,383.583,1.366,1.366,0,0,1,81.289,382.153Z" transform="translate(-71.309 -365.873)" stroke="#000" stroke-width="0.25"/>
      <path id="Path_62836" data-name="Path 62836" d="M188.947,40.072a4.683,4.683,0,0,1,.484-.469.349.349,0,0,1-.054-.186V35.9a1.056,1.056,0,0,1,1.055-1.055h2.813A1.056,1.056,0,0,1,194.3,35.9v3.516a.349.349,0,0,1-.054.186,4.637,4.637,0,0,1,1.108,1.361,4.663,4.663,0,0,1,1.109-1.362.349.349,0,0,1-.053-.185V35.9a1.056,1.056,0,0,1,1.055-1.055h2.812A1.056,1.056,0,0,1,201.33,35.9v3.516a.35.35,0,0,1-.052.184,4.7,4.7,0,0,1,1.656,3.143.352.352,0,0,1-.309.389l-.04,0a.352.352,0,0,1-.349-.312,3.944,3.944,0,0,0-1.944-3.055h-2.844a3.914,3.914,0,0,0-1.725,2.093,5.355,5.355,0,0,1,.217,1.539v1a.352.352,0,0,1-.7,0v-1a4.007,4.007,0,0,0-1.976-3.633h-2.844a4.045,4.045,0,0,0-1.977,3.633v5.685a.352.352,0,1,1-.7,0V43.4a4.883,4.883,0,0,1,1.211-3.329Zm11.68-1.007V37.095a2.225,2.225,0,0,1-.44.044,2.475,2.475,0,0,1-.919-.182h-2.157v2.109Zm-.352-3.516h-2.812a.352.352,0,0,0-.352.352v.352h2.227a.352.352,0,0,1,.138.028,1.651,1.651,0,0,0,1.151.091V35.9A.352.352,0,0,0,200.275,35.55Zm-6.68,3.516V37.095a2.225,2.225,0,0,1-.44.044,2.475,2.475,0,0,1-.919-.182H190.08v2.109Zm-.352-3.516h-2.813a.352.352,0,0,0-.352.352v.352h2.227a.351.351,0,0,1,.138.028,1.651,1.651,0,0,0,1.151.091V35.9A.352.352,0,0,0,193.244,35.55Z" transform="translate(-187.736 -34.847)" stroke="#000" stroke-width="0.25"/>
      <path id="Path_62837" data-name="Path 62837" d="M.352,233.432a.352.352,0,0,1,.352.352v2.626a.352.352,0,0,0,.352.352H6.893a3.358,3.358,0,0,1-.077-.727,3.685,3.685,0,0,1,.684-2.11V229.1a.352.352,0,1,1,.7,0v4.091a3.1,3.1,0,0,1,.939-.5,1.538,1.538,0,0,1-.17-.735,1.224,1.224,0,0,1,1.21-1.289h.259a1.281,1.281,0,0,1-.141-.586V229.3a1.746,1.746,0,0,1,1.379-1.716,17.18,17.18,0,0,1,3.522-.435,17.185,17.185,0,0,1,3.522.435A1.746,1.746,0,0,1,20.1,229.3v.778a1.281,1.281,0,0,1-.165.63,4.728,4.728,0,0,1,2.7,1.333A4.542,4.542,0,0,1,24,235.238a3.681,3.681,0,0,1-1.032,2.618,3.422,3.422,0,0,1-2.452,1.015H9.779a3.05,3.05,0,0,1-2.127-.754,2.49,2.49,0,0,1-.5-.652h-6.1A1.056,1.056,0,0,1,0,236.41v-2.626a.352.352,0,0,1,.352-.352Zm9.427,4.736H20.516a2.8,2.8,0,0,0,2.781-2.93,3.834,3.834,0,0,0-1.157-2.693,4.037,4.037,0,0,0-2.859-1.174H17.747a.352.352,0,1,1,0-.7h1.065a.587.587,0,0,0,.586-.586V229.3a1.048,1.048,0,0,0-.827-1.03,16.477,16.477,0,0,0-3.371-.419,16.476,16.476,0,0,0-3.371.419A1.048,1.048,0,0,0,11,229.3v.778a.587.587,0,0,0,.586.586h4.752a.352.352,0,1,1,0,.7H10.182a.53.53,0,0,0-.506.586c0,.267.07.586.406.586H19.59a2.615,2.615,0,0,1,1.715.685,2.374,2.374,0,0,1,.82,1.776A2.011,2.011,0,0,1,20.207,237H13.925a.352.352,0,0,1,0-.7h6.282A1.306,1.306,0,0,0,21.422,235a1.87,1.87,0,0,0-1.832-1.758H10.081a2.726,2.726,0,0,0-2.562,2.789A2.04,2.04,0,0,0,9.779,238.168Z" transform="translate(0 -218.138)" stroke="#000" stroke-width="0.25"/>
    </g>
    <g id="Icon_ionic-ios-add-circle-outline" data-name="Icon ionic-ios-add-circle-outline" transform="translate(63.094 828.735)">
      <path id="Path_62838" data-name="Path 62838" d="M14.078,12.15H12.729V10.8a.29.29,0,0,0-.579,0V12.15H10.8a.277.277,0,0,0-.29.29.28.28,0,0,0,.29.29H12.15v1.349a.281.281,0,0,0,.29.29.288.288,0,0,0,.29-.29V12.729h1.349a.29.29,0,0,0,0-.579Z" transform="translate(-5.299 -5.299)" stroke="#000" stroke-width="0.25"/>
      <path id="Path_62839" data-name="Path 62839" d="M7.141,3.882a3.257,3.257,0,1,1-2.3.954,3.237,3.237,0,0,1,2.3-.954m0-.507a3.766,3.766,0,1,0,3.766,3.766A3.765,3.765,0,0,0,7.141,3.375Z" stroke="#000" stroke-width="0.25"/>
    </g>
  </g>
</svg>
