<svg xmlns="http://www.w3.org/2000/svg" width="16.83" height="15.543" viewBox="0 0 16.83 15.543">
  <g id="double-bed" transform="translate(0 -19.577)">
    <path id="Path_69201" data-name="Path 69201" d="M15.756,27.2V21.91a2.336,2.336,0,0,0-2.333-2.333H3.34A2.336,2.336,0,0,0,1.007,21.91v5.358A3.614,3.614,0,0,0,0,29.774v4.011a1.335,1.335,0,1,0,2.671,0V33.37H14.159v.414a1.335,1.335,0,1,0,2.671,0V29.774A3.616,3.616,0,0,0,15.756,27.2ZM3.34,20.234H13.423A1.678,1.678,0,0,1,15.1,21.91v4.772a3.614,3.614,0,0,0-.64-.312V25.278A1.759,1.759,0,0,0,12.7,23.52H9.844a1.756,1.756,0,0,0-1.429.736,1.756,1.756,0,0,0-1.429-.736H4.129a1.759,1.759,0,0,0-1.757,1.757v1.093a3.617,3.617,0,0,0-.707.354V21.91A1.678,1.678,0,0,1,3.34,20.234Zm.287,5.912a3.637,3.637,0,0,0-.6.05v-.919a1.1,1.1,0,0,1,1.1-1.1H6.986a1.1,1.1,0,0,1,1.1,1.1v.869H3.627Zm5.117-.869a1.1,1.1,0,0,1,1.1-1.1H12.7a1.1,1.1,0,0,1,1.1,1.1V26.2a3.637,3.637,0,0,0-.6-.05H8.744ZM3.627,26.8H13.2a2.973,2.973,0,0,1,2.969,2.969v.975h-3.3a.329.329,0,1,0,0,.657h3.3v1.307H.657V31.406H9.589a.329.329,0,1,0,0-.657H.657v-.975A2.973,2.973,0,0,1,3.627,26.8Zm-1.614,6.98a.678.678,0,1,1-1.356,0V33.37H2.013Zm13.481.678a.679.679,0,0,1-.678-.678V33.37h1.356v.414A.679.679,0,0,1,15.495,34.463Z" fill="var(--primary-theme-color)"/>
    <circle id="Ellipse_9500" data-name="Ellipse 9500" cx="0.329" cy="0.329" r="0.329" transform="translate(10.903 30.749)" fill="var(--primary-theme-color)"/>
  </g>
</svg>
