<svg xmlns="http://www.w3.org/2000/svg" width="23.623" height="36.845" viewBox="0 0 23.623 36.845">
  <g id="guest-2" transform="translate(-47.099 0.5)">
    <g id="Group_92504" data-name="Group 92504" transform="translate(51.903 0)">
      <g id="Group_92503" data-name="Group 92503" transform="translate(0 0)">
        <circle id="Ellipse_9482" data-name="Ellipse 9482" cx="2.95" cy="2.95" r="2.95" fill="none" stroke="#707372" stroke-width="1"/>
      </g>
    </g>
    <g id="Group_92506" data-name="Group 92506" transform="translate(47.599 6.841)">
      <g id="Group_92505" data-name="Group 92505" transform="translate(0)">
        <path id="Path_66823" data-name="Path 66823" d="M177.984,113.707h-.635v-3.781h.521a.282.282,0,0,0,.282-.282v-.939a.282.282,0,0,0-.282-.282h-3.7a1.423,1.423,0,0,0-.58-1.663L170.67,104.9l-.023-3.835a3.376,3.376,0,0,0-3.369-3.352h-7.642a3.376,3.376,0,0,0-3.369,3.352l-.053,10.458a1.423,1.423,0,0,0,1.416,1.431h.007a1.424,1.424,0,0,0,1.423-1.416l.053-10.458a.275.275,0,0,1,.55,0v23.928a1.708,1.708,0,0,0,3.416,0V111.356h.737v13.654a1.708,1.708,0,0,0,3.416,0c0-22.292-.03-10.075-.031-23.918a.3.3,0,0,1,.6-.01h0l.028,4.611a1.423,1.423,0,0,0,.658,1.192l3.219,2.051v.709a.282.282,0,0,0,.282.282h.521v3.781h-.635a.854.854,0,0,0-.854.854v9.8a.854.854,0,0,0,.854.854h.635v.922a.583.583,0,1,0,1.165,0v-.922h2.512v.922a.583.583,0,0,0,1.165,0v-.922h.635a.854.854,0,0,0,.854-.854v-9.8A.854.854,0,0,0,177.984,113.707Zm-1.8,0h-2.511v-3.781h2.511Z" transform="translate(-156.215 -97.714)" fill="none" stroke="#707372" stroke-width="1"/>
      </g>
    </g>
  </g>
</svg>
