<svg id="people" xmlns="http://www.w3.org/2000/svg" width="16.496" height="11.707" viewBox="0 0 16.496 11.707">
  <path id="Path_70120" data-name="Path 70120" d="M42.484,57.9A1.9,1.9,0,1,1,44.4,56,1.907,1.907,0,0,1,42.484,57.9Zm0-3.26A1.364,1.364,0,1,0,43.865,56,1.374,1.374,0,0,0,42.484,54.638Zm0,0" transform="translate(-39.221 -52.306)"/>
  <path id="Path_70121" data-name="Path 70121" d="M4.033,186.66H.7a.694.694,0,0,1-.7-.691v-.87a3.27,3.27,0,0,1,5.21-2.593.266.266,0,0,1-.316.428A2.737,2.737,0,0,0,.532,185.1v.87a.161.161,0,0,0,.163.159H4.033a.266.266,0,1,1,0,.532Zm0,0" transform="translate(0 -175.819)"/>
  <path id="Path_70122" data-name="Path 70122" d="M337.6,180.609h-3.337a.266.266,0,0,1,0-.532H337.6a.161.161,0,0,0,.163-.159v-.87a2.718,2.718,0,0,0-2.731-2.7,2.756,2.756,0,0,0-1.729.61.266.266,0,1,1-.335-.414,3.29,3.29,0,0,1,2.064-.728,3.251,3.251,0,0,1,3.263,3.231v.87A.694.694,0,0,1,337.6,180.609Zm0,0" transform="translate(-321.803 -169.969)"/>
  <path id="Path_70123" data-name="Path 70123" d="M342.265,53.944a1.9,1.9,0,1,1,1.914-1.9A1.907,1.907,0,0,1,342.265,53.944Zm0-3.26a1.364,1.364,0,1,0,1.382,1.364A1.374,1.374,0,0,0,342.265,50.684Zm0,0" transform="translate(-329.032 -48.484)"/>
  <path id="Path_70124" data-name="Path 70124" d="M121.354,162.356h-7.222a.868.868,0,0,1-.87-.864v-1.224a4.481,4.481,0,0,1,8.962,0v1.224A.868.868,0,0,1,121.354,162.356Zm-3.611-5.992a3.931,3.931,0,0,0-3.949,3.9v1.224a.335.335,0,0,0,.338.332h7.222a.335.335,0,0,0,.338-.332v-1.224A3.931,3.931,0,0,0,117.743,156.364Zm0,0" transform="translate(-109.495 -150.649)"/>
  <path id="Path_70125" data-name="Path 70125" d="M173.74,4.872a2.45,2.45,0,0,1-2.459-2.436,2.459,2.459,0,0,1,4.918,0A2.45,2.45,0,0,1,173.74,4.872Zm0-4.34a1.918,1.918,0,0,0-1.927,1.9,1.927,1.927,0,0,0,3.854,0A1.918,1.918,0,0,0,173.74.532Zm0,0" transform="translate(-165.585)"/>
</svg>
