<svg xmlns="http://www.w3.org/2000/svg" width="42" height="42" viewBox="0 0 42 42">
  <g id="tea_coffee" data-name="tea coffee" transform="translate(-330 -27)">
    <g id="kit" transform="translate(235 1)">
      <g id="Group_104985" data-name="Group 104985" transform="translate(67 -1)">
        <rect id="Rectangle_149989" data-name="Rectangle 149989" width="42" height="42" transform="translate(28 27)" fill="none" opacity="0.365"/>
      </g>
    </g>
    <g id="coffee-cup" transform="translate(333 30)">
      <g id="Group_104988" data-name="Group 104988" transform="translate(0 12.328)">
        <g id="Group_104987" data-name="Group 104987">
          <path id="Path_69185" data-name="Path 69185" d="M35.3,177.524H29.531v-1.488a.7.7,0,0,0-.7-.7H13.641a.7.7,0,0,0,0,1.406H28.125v5.391a13.4,13.4,0,0,1-6.611,11.531H8.017A13.4,13.4,0,0,1,1.406,182.13v-5.391H6.117a.7.7,0,0,0,0-1.406H.7a.7.7,0,0,0-.7.7v6.094a14.741,14.741,0,0,0,5.545,11.531H.7a.7.7,0,0,0-.7.7A4.646,4.646,0,0,0,4.641,199H26.578a4.646,4.646,0,0,0,4.641-4.641.7.7,0,0,0-.7-.7H23.986a14.851,14.851,0,0,0,3.256-3.633h1.985A6.781,6.781,0,0,0,36,183.255v-5.027A.7.7,0,0,0,35.3,177.524Zm-5.561,17.543a3.24,3.24,0,0,1-3.157,2.531H4.641a3.24,3.24,0,0,1-3.157-2.531H29.736Zm-.2-12.938v-.387h2.25v1.512a2.558,2.558,0,0,1-2.555,2.555h-.16A14.8,14.8,0,0,0,29.531,182.13Zm5.063,1.125a5.373,5.373,0,0,1-5.367,5.367h-1.2a14.683,14.683,0,0,0,.6-1.406h.6a3.965,3.965,0,0,0,3.961-3.961V181.04a.7.7,0,0,0-.7-.7H29.531v-1.406h5.063Z" transform="translate(0 -175.333)" fill="#291f1d"/>
        </g>
      </g>
      <g id="Group_104990" data-name="Group 104990" transform="translate(13.26 0)">
        <g id="Group_104989" data-name="Group 104989" transform="translate(0 0)">
          <path id="Path_69186" data-name="Path 69186" d="M190.762,3.891l-.366-.459a1.833,1.833,0,0,1,0-2.292.7.7,0,1,0-1.1-.874,3.233,3.233,0,0,0,0,4.042l.366.459a2.4,2.4,0,0,1,0,2.995l-.375.472a.7.7,0,1,0,1.1.874l.375-.472A3.8,3.8,0,0,0,190.762,3.891Z" transform="translate(-188.585 0)" fill="#291f1d"/>
        </g>
      </g>
      <g id="Group_104992" data-name="Group 104992" transform="translate(17.157 1.581)">
        <g id="Group_104991" data-name="Group 104991">
          <path id="Path_69187" data-name="Path 69187" d="M246.191,26.375l-.366-.459a1.833,1.833,0,0,1,0-2.292.7.7,0,1,0-1.1-.874,3.233,3.233,0,0,0,0,4.042l.366.459a2.4,2.4,0,0,1,0,2.995l-.375.472a.7.7,0,1,0,1.1.874l.375-.472A3.8,3.8,0,0,0,246.191,26.375Z" transform="translate(-244.014 -22.484)" fill="#291f1d"/>
        </g>
      </g>
      <g id="Group_104994" data-name="Group 104994" transform="translate(9.363 1.581)">
        <g id="Group_104993" data-name="Group 104993">
          <path id="Path_69188" data-name="Path 69188" d="M135.333,26.376l-.366-.459a1.833,1.833,0,0,1,0-2.292.7.7,0,0,0-1.1-.874,3.233,3.233,0,0,0,0,4.042l.366.459a2.4,2.4,0,0,1,0,2.995l-.375.472a.7.7,0,1,0,1.1.874l.375-.472A3.8,3.8,0,0,0,135.333,26.376Z" transform="translate(-133.156 -22.485)" fill="#291f1d"/>
        </g>
      </g>
      <g id="Group_104996" data-name="Group 104996" transform="translate(9.366 12.328)">
        <g id="Group_104995" data-name="Group 104995">
          <path id="Path_69189" data-name="Path 69189" d="M134.41,175.536a.7.7,0,1,0,.206.5A.708.708,0,0,0,134.41,175.536Z" transform="translate(-133.21 -175.33)" fill="#291f1d"/>
        </g>
      </g>
      <g id="Group_104998" data-name="Group 104998" transform="translate(21.642 18.422)">
        <g id="Group_104997" data-name="Group 104997">
          <path id="Path_69190" data-name="Path 69190" d="M311.606,262a.7.7,0,0,0-.7.7,10.074,10.074,0,0,1-2.9,7.037.7.7,0,1,0,1,.99,11.491,11.491,0,0,0,3.312-8.027A.7.7,0,0,0,311.606,262Z" transform="translate(-307.795 -262)" fill="#291f1d"/>
        </g>
      </g>
      <g id="Group_105000" data-name="Group 105000" transform="translate(19.332 27.712)">
        <g id="Group_104999" data-name="Group 104999">
          <path id="Path_69191" data-name="Path 69191" d="M276.277,394.494a.7.7,0,0,0-.958-.267l-.016.009a.7.7,0,1,0,.691,1.225l.016-.009A.7.7,0,0,0,276.277,394.494Z" transform="translate(-274.945 -394.136)" fill="#291f1d"/>
        </g>
      </g>
    </g>
  </g>
</svg>
